<svg width="229" height="163" viewBox="0 0 229 163" fill="none" xmlns="http://www.w3.org/2000/svg">
<g clip-path="url(#clip0_38_27)">
<path d="M56.4064 41.1582L19.1831 69.2319L75.2553 143.601L89.8411 132.599" stroke="#323130" stroke-linecap="round" stroke-linejoin="round"/>
<path d="M36.9126 73.3871L61.408 54.8633" stroke="#323130" stroke-linecap="round" stroke-linejoin="round"/>
<path d="M44.313 83.1932L65.8118 66.9395" stroke="#323130" stroke-linecap="round" stroke-linejoin="round"/>
<path d="M51.7373 93L70.2373 79.0391" stroke="#323130" stroke-linecap="round" stroke-linejoin="round"/>
<path d="M153.932 46.5437L144.676 21.2383L114.71 6.91406L52.2373 29.7511L92.6447 140.26L126.34 127.937" stroke="#323130" stroke-linecap="round" stroke-linejoin="round"/>
<path d="M122.973 29.5014L114.71 6.91406L109.784 8.70742L122.973 29.5014Z" fill="#323130"/>
<path d="M122.973 29.5014L114.71 6.91406L109.784 8.70742L122.973 29.5014Z" stroke="#323130" stroke-linecap="round" stroke-linejoin="round"/>
<path d="M72.146 41.2833L109.148 27.707" stroke="#323130" stroke-linecap="round" stroke-linejoin="round"/>
<path d="M77.5034 55.859L135.051 34.7461" stroke="#323130" stroke-linecap="round" stroke-linejoin="round"/>
<path d="M82.8379 70.4552L109.104 60.8301" stroke="#323130" stroke-linecap="round" stroke-linejoin="round"/>
<path d="M114.709 6.91406L122.973 29.5014L144.789 21.5334" stroke="#323130" stroke-linecap="round" stroke-linejoin="round"/>
<path d="M110.646 128.277L201.359 126.323L199.702 54.271C199.647 51.9594 198.676 49.7642 197.004 48.168C195.331 46.5717 193.092 45.7049 190.781 45.7582L117.524 47.3245C115.212 47.3784 113.016 48.3486 111.418 50.0216C109.821 51.6947 108.954 53.9336 109.008 56.2459L110.646 128.277Z" stroke="#323130" stroke-linecap="round" stroke-linejoin="round"/>
<path d="M214.617 63.0803L168.035 64.0564C166.926 64.0795 165.833 63.789 164.882 63.2183C163.931 62.6476 163.16 61.8199 162.658 60.8305C162.16 59.8428 161.393 59.016 160.445 58.4453C159.497 57.8746 158.407 57.5832 157.301 57.6046L130.195 58.1267C128.859 58.1522 127.572 58.6314 126.545 59.4853C125.518 60.3393 124.812 61.5173 124.543 62.8258L110.627 128.3L201.363 126.324L218.181 67.9896C218.402 67.4281 218.478 66.8187 218.402 66.2178C218.326 65.6178 218.1 65.0466 217.745 64.5572C217.39 64.0678 216.917 63.6761 216.37 63.4184C215.823 63.1601 215.22 63.0439 214.617 63.0803Z" fill="#323130"/>
<path d="M214.617 63.0803L168.035 64.0564C166.926 64.0795 165.833 63.789 164.882 63.2183C163.931 62.6476 163.16 61.8199 162.658 60.8305C162.16 59.8428 161.393 59.016 160.445 58.4453C159.497 57.8746 158.407 57.5832 157.301 57.6046L130.195 58.1267C128.859 58.1522 127.572 58.6314 126.545 59.4853C125.518 60.3393 124.812 61.5173 124.543 62.8258L110.627 128.3L201.363 126.324L218.181 67.9896C218.402 67.4281 218.478 66.8187 218.402 66.2178C218.326 65.6178 218.1 65.0466 217.745 64.5572C217.39 64.0678 216.917 63.6761 216.37 63.4184C215.823 63.1601 215.22 63.0439 214.617 63.0803Z" stroke="#323130" stroke-linecap="round" stroke-linejoin="round"/>
<path d="M222.427 73.451L146.129 75.0173C144.615 75.0441 143.135 75.4642 141.834 76.2364C140.532 77.0086 139.454 78.1062 138.705 79.4213L110.646 128.275L201.36 126.321L227.262 81.6233C227.749 80.7868 228.003 79.8359 228 78.8684C227.996 77.9008 227.735 76.9517 227.242 76.1189C226.75 75.2855 226.044 74.5987 225.198 74.1296C224.351 73.6606 223.395 73.4263 222.427 73.451Z" fill="#78327E"/>
<path d="M222.427 73.451L146.129 75.0173C144.615 75.0441 143.135 75.4642 141.834 76.2364C140.532 77.0086 139.454 78.1062 138.705 79.4213L110.646 128.275L201.36 126.321L227.262 81.6233C227.749 80.7868 228.003 79.8359 228 78.8683C227.996 77.9008 227.735 76.9517 227.242 76.1189C226.75 75.2855 226.044 74.5987 225.198 74.1296C224.351 73.6606 223.395 73.4263 222.427 73.451Z" stroke="#323130" stroke-linecap="round" stroke-linejoin="round"/>
<path d="M141.497 161.579C142.533 161.579 143.526 161.167 144.258 160.435C144.99 159.703 145.402 158.71 145.402 157.674C145.402 156.639 144.99 155.645 144.258 154.913C143.526 154.181 142.533 153.77 141.497 153.77C140.462 153.77 139.469 154.181 138.736 154.913C138.004 155.645 137.593 156.639 137.593 157.674C137.593 158.71 138.004 159.703 138.736 160.435C139.469 161.167 140.462 161.579 141.497 161.579Z" stroke="#323130" stroke-linecap="round" stroke-linejoin="round"/>
<path d="M8.78637 37.5391L8.76367 53.0903" stroke="#323130" stroke-linecap="round" stroke-linejoin="round"/>
<path d="M16.55 45.3274L1 45.3047" stroke="#323130" stroke-linecap="round" stroke-linejoin="round"/>
<path d="M183.703 6.32752V1" stroke="#323130" stroke-linecap="round" stroke-linejoin="round"/>
<path d="M178.924 11.1074H173.597" stroke="#323130" stroke-linecap="round" stroke-linejoin="round"/>
<path d="M183.703 15.8848V21.2135" stroke="#323130" stroke-linecap="round" stroke-linejoin="round"/>
<path d="M188.482 11.1074H193.81" stroke="#323130" stroke-linecap="round" stroke-linejoin="round"/>
<path d="M183.703 15.8864C184.97 15.8864 186.186 15.3828 187.082 14.4866C187.979 13.5903 188.482 12.3747 188.482 11.1072C188.482 9.83974 187.979 8.62415 187.082 7.7279C186.186 6.83164 184.97 6.32812 183.703 6.32812C182.435 6.32812 181.22 6.83164 180.324 7.7279C179.427 8.62415 178.924 9.83974 178.924 11.1072C178.924 12.3747 179.427 13.5903 180.324 14.4866C181.22 15.3828 182.435 15.8864 183.703 15.8864Z" stroke="#323130" stroke-linecap="round" stroke-linejoin="round"/>
</g>
<defs>
<clipPath id="clip0_38_27">
<rect width="229" height="163" fill="white"/>
</clipPath>
</defs>
</svg>
